# xmcd
#
# Track frame offsets: 
#        183
#        12283
#        23008
#        34380
#        44645
#        55070
#        66460
#        76858
#        86820
#        97603
#        109023
#        123500
#
# Disc length: 1792 seconds
#
# Revision: 0
# Processed by: cddbd v1.5.1PL0 Copyright (c) Steve Scherf et al.
# Submitted via: ExactAudioCopy v0.95a5
#
DISCID=9506fe0c
DTITLE=Patsy Cline - Walkin' After Midnight
DYEAR=1900
DGENRE=Country
TTITLE0=Walkin' After Midnight
TTITLE1=Stop, Look And Listen
TTITLE2=The Heart You Break May Be Your Own
TTITLE3=Three Cigarettes In An Ashtray
TTITLE4=Walking Dream
TTITLE5=Just Out Of Reach
TTITLE6=Pick Me Up On Your Way Down
TTITLE7=Turn The Cards Slowly
TTITLE8=Honky Tonk Merry Go Round
TTITLE9=Cry Not For Me
TTITLE10=Then You'll Know
TTITLE11=I Cried All The Way To The Altar
EXTD=
EXTT0=
EXTT1=
EXTT2=
EXTT3=
EXTT4=
EXTT5=
EXTT6=
EXTT7=
EXTT8=
EXTT9=
EXTT10=
EXTT11=
PLAYORDER=
